<svg width="31" height="30" viewBox="0 0 31 30" fill="none" xmlns="http://www.w3.org/2000/svg">
<g clip-path="url(#clip0_3_412)">
<path d="M26.72 8.1044H3.65363V25.2483H26.72V8.1044Z" stroke="white" stroke-width="1.87025" stroke-miterlimit="10"/>
<path d="M8.32922 3.74049V11.2215" stroke="white" stroke-width="1.87025" stroke-miterlimit="10"/>
<path d="M22.0444 3.74049V11.2215" stroke="white" stroke-width="1.87025" stroke-miterlimit="10"/>
<path d="M10.8229 12.4683H5.83557V17.4556H10.8229V12.4683Z" fill="white"/>
<path d="M16.4337 12.4683H13.94V14.962H16.4337V12.4683Z" fill="white"/>
<path d="M20.4858 12.4683H17.9922V14.962H20.4858V12.4683Z" fill="white"/>
<path d="M24.538 12.4683H22.0444V14.962H24.538V12.4683Z" fill="white"/>
<path d="M16.4337 16.2088H13.94V18.7025H16.4337V16.2088Z" fill="white"/>
<path d="M20.4858 16.2088H17.9922V18.7025H20.4858V16.2088Z" fill="white"/>
<path d="M24.538 16.2088H22.0444V18.7025H24.538V16.2088Z" fill="white"/>
<path d="M16.4337 19.9493H13.94V22.4429H16.4337V19.9493Z" fill="white"/>
<path d="M12.3815 19.9493H9.88782V22.4429H12.3815V19.9493Z" fill="white"/>
<path d="M8.32923 19.9493H5.83557V22.4429H8.32923V19.9493Z" fill="white"/>
<path d="M20.4858 19.9493H17.9922V22.4429H20.4858V19.9493Z" fill="white"/>
<path d="M24.538 19.9493H22.0444V22.4429H24.538V19.9493Z" fill="white"/>
</g>
<defs>
<clipPath id="clip0_3_412">
<rect width="24.9366" height="22.443" fill="white" transform="translate(2.71851 3.74049)"/>
</clipPath>
</defs>
</svg>
