<svg width="31" height="30" viewBox="0 0 31 30" fill="none" xmlns="http://www.w3.org/2000/svg">
<path d="M17.2309 27.3468H13.7815C12.9486 27.3468 12.2712 26.6694 12.2712 25.8427V23.9036C11.9853 23.8042 11.7056 23.6861 11.4321 23.5555L10.0648 24.9229C9.47435 25.5133 8.52343 25.5071 7.93298 24.9229L5.50284 22.4865C4.91862 21.8961 4.91862 20.9452 5.50284 20.3547L6.87019 18.9874C6.73967 18.7139 6.62779 18.4342 6.52213 18.1483H4.58299C3.75637 18.1483 3.07892 17.4709 3.07892 16.638V13.1886C3.07892 12.3558 3.75637 11.6783 4.58299 11.6783H6.52213C6.62158 11.3924 6.73967 11.1127 6.87019 10.8393L5.50284 9.47192C4.91862 8.88148 4.91862 7.93055 5.50284 7.34011L7.9392 4.90997C8.52964 4.32574 9.48057 4.32574 10.071 4.90997L11.4384 6.27731C11.7118 6.14679 11.9915 6.03492 12.2774 5.92926V3.99012C12.2774 3.1635 12.9549 2.48605 13.7877 2.48605H17.2371C18.07 2.48605 18.7474 3.1635 18.7474 3.99012V5.92926C19.0333 6.02871 19.313 6.14679 19.5865 6.27731L20.9538 4.90997C21.538 4.32574 22.4952 4.32574 23.0856 4.90997L25.5282 7.35254C26.1124 7.94298 26.1124 8.89391 25.5282 9.48435L24.1608 10.8517C24.2914 11.1252 24.4032 11.4048 24.5089 11.6907H26.448C27.2809 11.6907 27.9521 12.3682 27.9521 13.201V16.6505C27.9521 17.4833 27.2747 18.1608 26.448 18.1608H24.5089C24.4095 18.4467 24.2914 18.7263 24.1608 18.9998L25.5282 20.3672C26.1124 20.9576 26.1124 21.9085 25.5282 22.499L23.0856 24.9353C22.4952 25.5258 21.5443 25.5258 20.9538 24.9353L19.5865 23.568C19.313 23.6985 19.0333 23.8104 18.7474 23.916V25.8552C18.7412 26.6694 18.0637 27.3468 17.2309 27.3468ZM14.142 25.4823H16.8766V23.6426C16.8766 22.99 17.2993 22.4182 17.9208 22.2131C18.2813 22.095 18.6293 21.952 18.9649 21.7842C19.5554 21.4859 20.2577 21.5978 20.7176 22.0577L22.0166 23.3567L23.9495 21.4237L22.6506 20.1248C22.1906 19.6648 22.0788 18.9625 22.3771 18.3721C22.5449 18.0365 22.6878 17.6884 22.8059 17.3279C23.011 16.7002 23.5891 16.2838 24.2354 16.2838H26.0751V13.5491H24.2354C23.5828 13.5491 23.011 13.1265 22.8059 12.5049C22.6878 12.1445 22.5449 11.7964 22.3771 11.4608C22.0788 10.8703 22.1906 10.168 22.6506 9.7081L23.9495 8.40912L22.0166 6.4762L20.7176 7.77517C20.2577 8.2351 19.5554 8.34697 18.9649 8.04864C18.6293 7.88083 18.2813 7.73788 17.9208 7.61979C17.2993 7.41469 16.8766 6.83668 16.8766 6.1903V4.3506H14.142V6.1903C14.142 6.8429 13.7193 7.41469 13.0978 7.61979C12.7373 7.73788 12.3893 7.88083 12.0537 8.04864C11.4632 8.34697 10.7609 8.2351 10.301 7.77517L9.002 6.4762L7.06907 8.40912L8.36805 9.7081C8.82797 10.168 8.93984 10.8703 8.64152 11.4608C8.47371 11.7964 8.33076 12.1445 8.21267 12.5049C8.00757 13.1265 7.42955 13.5491 6.78317 13.5491H4.94348V16.2838H6.78317C7.43577 16.2838 8.00757 16.7064 8.21267 17.3279C8.33076 17.6884 8.47371 18.0365 8.64152 18.3721C8.93984 18.9625 8.82797 19.6648 8.36805 20.1248L7.06907 21.4237L9.002 23.3567L10.301 22.0577C10.7609 21.5978 11.4632 21.4859 12.0537 21.7842C12.3893 21.952 12.7373 22.095 13.0916 22.2131C13.7193 22.4182 14.1357 22.9962 14.1357 23.6426V25.4823H14.142ZM15.5093 19.8762C12.7746 19.8762 10.5496 17.6511 10.5496 14.9164C10.5496 12.1817 12.7746 9.95671 15.5093 9.95671C18.244 9.95671 20.469 12.1817 20.469 14.9164C20.469 17.6511 18.244 19.8762 15.5093 19.8762ZM15.5093 11.8213C13.8063 11.8213 12.4141 13.2073 12.4141 14.9164C12.4141 16.6256 13.8001 18.0116 15.5093 18.0116C17.2185 18.0116 18.6045 16.6256 18.6045 14.9164C18.6045 13.2073 17.2123 11.8213 15.5093 11.8213Z" fill="white"/>
</svg>
