<svg width="33" height="29" viewBox="0 0 33 29" fill="none" xmlns="http://www.w3.org/2000/svg">
<path d="M19.9754 25.3689C19.9754 27.2403 18.4566 28.759 16.5853 28.759C14.714 28.759 13.1952 27.2403 13.1952 25.3689H19.9754Z" fill="#FFFBFB"/>
<path d="M22.0094 9.77445C23.5073 9.77445 24.7215 8.56021 24.7215 7.06236C24.7215 5.56452 23.5073 4.35028 22.0094 4.35028C20.5116 4.35028 19.2974 5.56452 19.2974 7.06236C19.2974 8.56021 20.5116 9.77445 22.0094 9.77445Z" fill="#FABB18"/>
<path d="M24.7216 18.2497V12.4865C24.7216 11.7407 24.6131 11.022 24.4233 10.3304C23.7452 10.8322 22.9113 11.1305 22.0095 11.1305C19.7653 11.1305 17.9414 9.30661 17.9414 7.06236C17.9414 6.1606 18.2397 5.32663 18.7414 4.64861C18.0499 4.45876 17.3312 4.35028 16.5853 4.35028C12.0901 4.35028 8.44908 7.99125 8.44908 12.4865V18.2497C6.95066 18.2497 5.737 19.4634 5.737 20.9618C5.737 22.4602 6.95066 23.6739 8.44908 23.6739H24.7216C26.22 23.6739 27.4337 22.4602 27.4337 20.9618C27.4337 19.4634 26.22 18.2497 24.7216 18.2497Z" fill="white"/>
</svg>
