<svg width="25" height="26" viewBox="0 0 25 26" fill="none" xmlns="http://www.w3.org/2000/svg">
<path d="M21.9385 12.7829C21.9385 12.2524 21.8928 11.7411 21.8013 11.2362C21.7099 10.7121 21.9581 10.188 22.4349 9.91952L23.6302 9.24202C24.2572 8.89049 24.4662 8.10435 24.107 7.49716L22.8007 5.28572C22.4414 4.67214 21.6381 4.46762 21.0176 4.81915L19.8223 5.49025C19.352 5.7523 18.7707 5.70756 18.3527 5.36881C17.5362 4.71049 16.6088 4.18639 15.5964 3.81569C15.0869 3.63034 14.7538 3.15737 14.7538 2.62688V1.27829C14.7538 0.57523 14.166 0 13.4475 0H10.8349C10.1164 0 9.52857 0.57523 9.52857 1.27829V2.62688C9.52857 3.15737 9.19546 3.63034 8.686 3.81569C7.68014 4.18639 6.74613 4.71049 5.92969 5.36881C5.51167 5.70756 4.92383 5.7523 4.46009 5.49025L3.26482 4.81915C2.63779 4.46123 1.84094 4.67214 1.4817 5.28572L0.175396 7.49716C-0.183839 8.11074 0.0317023 8.89049 0.652199 9.24202L1.84747 9.91952C2.31774 10.188 2.57247 10.7121 2.48103 11.2362C2.39612 11.7411 2.34387 12.2588 2.34387 12.7829C2.34387 13.307 2.38959 13.8247 2.48103 14.3296C2.57247 14.8537 2.32427 15.3778 1.84747 15.6462L0.652199 16.3237C0.0251707 16.6753 -0.183839 17.4614 0.175396 18.0686L1.4817 20.28C1.84094 20.8936 2.64432 21.0981 3.26482 20.7466L4.46009 20.0755C4.92383 19.8135 5.51167 19.8582 5.92969 20.197C6.74613 20.8553 7.67361 21.3794 8.686 21.7501C9.19546 21.9354 9.52857 22.4084 9.52857 22.9389V24.2875C9.52857 24.9905 10.1164 25.5658 10.8349 25.5658H13.4475C14.166 25.5658 14.7538 24.9905 14.7538 24.2875V22.9389C14.7538 22.4084 15.0869 21.9354 15.5964 21.7501C16.6022 21.3794 17.5362 20.8553 18.3527 20.197C18.7707 19.8582 19.3585 19.8135 19.8288 20.0755L21.0241 20.7466C21.6511 21.0981 22.448 20.8872 22.8072 20.28L24.1135 18.0686C24.4727 17.455 24.2572 16.6753 23.6367 16.3237L22.4414 15.6462C21.9712 15.3778 21.7164 14.8537 21.8079 14.3296C21.8928 13.8247 21.9385 13.3134 21.9385 12.7829ZM12.1412 16.6177C9.97924 16.6177 8.22226 14.8984 8.22226 12.7829C8.22226 10.6673 9.97924 8.94802 12.1412 8.94802C14.3031 8.94802 16.0601 10.6673 16.0601 12.7829C16.0601 14.8984 14.3031 16.6177 12.1412 16.6177Z" fill="white"/>
</svg>
